<?xml version="1.0" encoding="UTF-8"?> <!-- Generator: Adobe Illustrator 21.0.2, SVG Export Plug-In . SVG Version: 6.00 Build 0) --> <svg xmlns="http://www.w3.org/2000/svg" xmlns:xlink="http://www.w3.org/1999/xlink" id="Layer_1" x="0px" y="0px" viewBox="0 0 480.5 231.7" style="enable-background:new 0 0 480.5 231.7;" xml:space="preserve" width="141px" height="68px"> <style type="text/css"> .st0 { fill: #418EB1; } .st1 { fill: #428DB3; } .st2 { fill: #58595B; } </style> <g id="XMLID_1_"> <g id="XMLID_574_"> <path id="XMLID_592_" class="st0" d="M48.4,111.6c20.5,0,38,17.2,38,38v27.3c0,21.4,2,26.9,8.1,27.6v1.7 c-13.7-0.6-20.6-8.1-20.6-23v-32.1c0-15.7-10.9-28.1-24.8-28.1c-15.2,0-25.8,11.8-25.8,27.9v52.5H10.7v-63.2 c0-21-1.4-26.2-7.8-27.6v-1.4c9.8,0.3,15.8,4.2,18.5,11.5c8.4-7.6,17.5-11.5,27.6-11.5L48.4,111.6z"></path> <path id="XMLID_590_" class="st0" d="M173.4,205.7L127,157.1v46.1h-12.6V41.7H127v112.9l31.7-21c12-7.9,17.7-14.3,17.9-18.8 c0-0.8-0.3-1.6-0.6-2.5l1.1-1.1c2.8,3.9,4.2,7.6,4.2,11.2c0,6.2-4.2,12-12.3,17.4l-25.6,17.2l39.9,41.6L173.4,205.7z"></path> <path id="XMLID_587_" class="st1" d="M318.4,227.8 M311.3,223.8c0,0,18.1-3.5,28.4-8c12.2-5.3,19-13.2,20.1-17 c0.2-0.7,0.1-1.4,0-2.2l1.1-0.7c1.6,3.9,2,7.3,1.3,10.3c-1.3,5.3-6.4,12.6-15,17c-11.1,5.6-26.7,7.6-26.7,7.6L311.3,223.8z"></path> <path id="XMLID_584_" class="st1" d="M377.3,94.8 M363.5,100c0,0,56.9-28,87.5-61.6c10.5-11.5,13.9-27.5,12.9-32.9 c-0.2-0.9-0.7-1.8-1.3-2.8l0.9-1.5c4,3.9,6.4,8,7.3,12.2c1.6,7.3,1,18.5-7.3,29.9c-28.6,39-87.8,64.7-87.8,64.7L363.5,100z"></path> <path id="XMLID_582_" class="st2" d="M249.2,112.4c24.1,2.8,42.5,23,42.5,46.7c0,25.8-22,47.5-48.1,47.5 c-25.9,0-47.5-21.6-47.5-47.5c0-23.6,18.5-44.2,41.8-47v12.4c-16.1,3.1-29.2,17.9-29.2,34.6c0,19.6,16,35.4,35.6,35.4 c18.8,0,35.6-16.5,35.6-35.7c0-16.6-12.9-32.1-29.3-34.9v-12.3L249.2,112.4z"></path> <path id="XMLID_580_" class="st2" d="M332.4,112.4c24.1,2.8,42.5,23,42.5,46.7c0,25.8-22,47.5-48.1,47.5 c-25.9,0-47.5-21.6-47.5-47.5c0-23.6,18.5-44.2,41.8-47v12.4c-16.1,3.1-29.2,17.9-29.2,34.6c0,19.6,16,35.4,35.6,35.4 c18.8,0,35.6-16.5,35.6-35.7c0-16.6-12.9-32.1-29.3-34.9v-12.3L332.4,112.4z"></path> <path id="XMLID_577_" class="st1" d="M432.2,111.6c20.5,0,38,17.2,38,38v27.3c0,21.4,2,26.9,8.1,27.6v1.7 c-13.7-0.6-20.6-8.1-20.6-23v-32.1c0-15.7-10.9-28.1-24.8-28.1c-15.2,0-25.8,11.8-25.8,27.9v52.5h-12.6v-63.2 c0-21-1.4-26.2-7.8-27.6v-1.4c9.8,0.3,15.8,4.2,18.5,11.5c8.4-7.6,17.5-11.5,27.6-11.5L432.2,111.6z"></path> <circle id="XMLID_576_" class="st1" cx="243.9" cy="141" r="8.2"></circle> <circle id="XMLID_575_" class="st1" cx="432.5" cy="195.9" r="8.2"></circle> </g> </g> <g> </g> <g> </g> <g> </g> <g> </g> <g> </g> <g> </g> </svg> 